<svg id="Layer_1" data-name="Layer 1" xmlns="http://www.w3.org/2000/svg" viewBox="0 0 235.24 143.38"><defs><style>.cls-2{fill:#85a5c9}</style></defs><path d="M76.52 161h-8.67L51.12 84.7h10.4l10.72 51.79L83 84.7h10.3zm39.77-15.08l-8.74-42.28-12.22 57.28h-10.4l17.87-76.3h9.67l17.88 76.3H120l-3.66-15m19 15V84.61h10.3v66.79h22.05v9.52zm37-38.1q0-21 5.09-30.07T194 83.63q11.47 0 16.54 9.06t5.07 30.13q0 21-5.07 30t-16.54 9q-11.55 0-16.63-9t-5.11-30zm10.4-.21q0 16.2 2.63 22.87t8.79 6.66q6.1 0 8.6-6.32t2.51-23.21q0-16.45-2.56-22.94T194 93.19q-6.16 0-8.74 6.53t-2.6 22.89zm51 1v37.26h-10.37V84.62h12.44q12.38 0 17.63 4.6t5.26 15.31q0 8.46-3.61 13.2t-10.77 5.61l18.14 37.58h-11L234 123.66zm0-5.85h3.19q6.27 0 8.86-2.93t2.59-10.35q0-6.16-2.49-8.54t-9.27-2.38h-2.88zm-132.02 62.46l-.64 3.71h-1.73L103 165.6h1.6l3.74 18.33h-1.7l-.72-3.71m0 0l-1.8-10c-.06-.34-.12-.74-.17-1.2s-.09-1-.12-1.53q-.06.79-.15 1.47c0 .45-.12.87-.19 1.27l-1.78 10m53.62 0l-.64 3.71H153l3.66-18.33h1.6l3.74 18.32h-1.7l-.72-3.71m0 0l-1.8-10c-.06-.34-.11-.74-.16-1.2s-.1-1-.13-1.53q-.06.79-.15 1.47c-.05.45-.12.87-.19 1.27l-1.78 10m-45.1-14.63H112v13.1a6.79 6.79 0 0 0 .5 3.14 2.21 2.21 0 0 0 3.45 0 6.82 6.82 0 0 0 .49-3.14v-13.1h1.68v13.1a7.5 7.5 0 0 1-.89 4.25 4.39 4.39 0 0 1-6 0 7.51 7.51 0 0 1-.88-4.25zm12.73 1.49h-2.88v-1.49h7.41v1.49h-2.86v16.84H123zm5.73 7.69q0-4.83 1.11-7.12a3.75 3.75 0 0 1 6.91 0q1.13 2.29 1.12 7.12c0 3.21-.37 5.58-1.12 7.09a3.76 3.76 0 0 1-6.91 0c-.74-1.51-1.11-3.87-1.11-7.09zm4.57-7.88c-1 0-1.7.63-2.15 1.89a26.13 26.13 0 0 0 0 11.93c.45 1.27 1.17 1.9 2.15 1.9s1.7-.62 2.16-1.88a26.68 26.68 0 0 0 0-12c-.46-1.21-1.18-1.84-2.16-1.84zm8.5-1.3h1.49l1.86 11.87c0 .22.15 1.16.35 2.83.06.67.12 1.2.17 1.59.06-.67.14-1.37.24-2.11s.22-1.5.35-2.31l2-11.87h1.43l2.25 18.33h-1.54l-1.25-12v-.27c-.13-1.36-.23-2.6-.31-3.71-.1 1.13-.19 2-.28 2.75s-.17 1.32-.26 1.85l-1.92 11.38h-1.45l-1.82-11.83c0-.06 0-.15-.05-.29-.24-1.48-.4-2.77-.5-3.86 0 .56-.1 1.27-.17 2.14-.1 1.28-.16 2-.19 2.18l-1.34 11.66h-1.52zm23.2 1.49h-2.88v-1.49h7.41v1.49h-2.86v16.84H165zm6.63 16.84V165.6h1.69v18.33zm4.47-9.15q0-4.83 1.11-7.12a3.75 3.75 0 0 1 6.91 0q1.13 2.29 1.12 7.12c0 3.21-.37 5.58-1.12 7.09a3.76 3.76 0 0 1-6.91 0c-.78-1.51-1.15-3.87-1.15-7.09zm4.56-7.88c-1 0-1.69.63-2.15 1.89a26.5 26.5 0 0 0 0 11.93c.46 1.27 1.18 1.9 2.15 1.9s1.71-.62 2.17-1.88a26.68 26.68 0 0 0 0-12c-.5-1.21-1.22-1.84-2.21-1.84zm7.39-1.3h1.45l4.16 12.54c.06.17.17.61.35 1.29s.4 1.53.66 2.56q-.21-1.63-.3-3.36c-.06-1.15-.1-2.33-.1-3.55v-9.48h1.45v18.33h-1.45l-4-12.34c-.19-.59-.37-1.21-.56-1.87s-.38-1.4-.58-2.22c.14 1.29.25 2.51.32 3.66s.1 2.21.1 3.2v9.57H188zm15.64 15.5a4.89 4.89 0 0 0 1.4 1.12 3.33 3.33 0 0 0 1.53.38 2.7 2.7 0 0 0 2.11-.93 3.48 3.48 0 0 0 .82-2.4 3.62 3.62 0 0 0-.17-1.16 3.14 3.14 0 0 0-.52-1 9.68 9.68 0 0 0-1.92-1.7c-.37-.27-.64-.47-.81-.61a8.1 8.1 0 0 1-2-2.23 5.32 5.32 0 0 1 .6-5.88 4 4 0 0 1 3.07-1.36 4.28 4.28 0 0 1 1.44.25 5.56 5.56 0 0 1 1.39.75v2.16a4.12 4.12 0 0 0-1.26-1.18 2.87 2.87 0 0 0-1.5-.41 2.45 2.45 0 0 0-1.94.85 3.19 3.19 0 0 0-.74 2.21 3.82 3.82 0 0 0 .5 2 9.69 9.69 0 0 0 2.38 2.23 9.43 9.43 0 0 1 2.56 2.47 4.84 4.84 0 0 1 .62 2.49 5.15 5.15 0 0 1-1.26 3.58 4.1 4.1 0 0 1-3.2 1.4 6 6 0 0 1-1.6-.21 5.86 5.86 0 0 1-1.48-.65zm75 0a4.76 4.76 0 0 0 1.4 1.12 3.26 3.26 0 0 0 1.52.38 2.69 2.69 0 0 0 2.11-.93 3.48 3.48 0 0 0 .83-2.4 3.92 3.92 0 0 0-.17-1.16 3.37 3.37 0 0 0-.52-1 10.31 10.31 0 0 0-1.92-1.7l-.82-.61a8.43 8.43 0 0 1-2-2.23 5.35 5.35 0 0 1 .61-5.88 4 4 0 0 1 3.06-1.36 4.2 4.2 0 0 1 1.44.25 5.61 5.61 0 0 1 1.4.75v2.16a4.12 4.12 0 0 0-1.26-1.18 2.87 2.87 0 0 0-1.5-.41 2.43 2.43 0 0 0-1.94.85 3.2 3.2 0 0 0-.75 2.21 3.73 3.73 0 0 0 .51 2 9.5 9.5 0 0 0 2.38 2.23 9.59 9.59 0 0 1 2.56 2.47 4.84 4.84 0 0 1 .62 2.49 5.15 5.15 0 0 1-1.27 3.58 4.09 4.09 0 0 1-3.2 1.4 5.65 5.65 0 0 1-3.07-.86zm-65.7-6.32q0-4.83 1.11-7.12a3.75 3.75 0 0 1 6.91 0q1.11 2.29 1.11 7.12c0 3.21-.37 5.58-1.11 7.09a3.76 3.76 0 0 1-6.91 0c-.8-1.51-1.17-3.87-1.17-7.09zm4.56-7.88c-1 0-1.69.63-2.15 1.89a26.13 26.13 0 0 0 0 11.93c.46 1.27 1.17 1.9 2.15 1.9s1.7-.62 2.16-1.88a26.3 26.3 0 0 0 0-12c-.52-1.21-1.24-1.84-2.22-1.84zm7.39-1.3h1.69v16.81h3.94v1.52h-5.63zm7.38 0H234v13.1a7 7 0 0 0 .49 3.14 2.22 2.22 0 0 0 3.46 0 6.82 6.82 0 0 0 .49-3.14v-13.1h1.68v13.1a7.5 7.5 0 0 1-.89 4.25 4.39 4.39 0 0 1-6 0 7.5 7.5 0 0 1-.89-4.25zm12.68 1.49h-2.87v-1.49h7.41v1.49h-2.86v16.84H245zm6.63 16.84V165.6h1.69v18.33zm4.48-9.15q0-4.83 1.11-7.12a3.75 3.75 0 0 1 6.91 0q1.13 2.29 1.12 7.12c0 3.21-.37 5.58-1.12 7.09a3.76 3.76 0 0 1-6.91 0c-.75-1.51-1.12-3.87-1.12-7.09zm4.56-7.88c-1 0-1.69.63-2.15 1.89a26.13 26.13 0 0 0 0 11.93c.46 1.27 1.18 1.9 2.15 1.9s1.71-.62 2.16-1.88a26.3 26.3 0 0 0 0-12c-.46-1.21-1.19-1.84-2.17-1.84zm7.39-1.3h1.45l4.16 12.54c.06.17.17.61.35 1.29s.4 1.53.66 2.56q-.21-1.63-.3-3.36c-.06-1.15-.1-2.33-.1-3.55v-9.48h1.45v18.33h-1.45l-4-12.34c-.19-.59-.37-1.21-.56-1.87s-.38-1.4-.58-2.22c.14 1.29.25 2.51.32 3.66s.1 2.21.1 3.2v9.57h-1.45z" transform="translate(-51.12 -40.77)" fill="#1d1d1b"/><path class="cls-2" d="M180.8 40.77l-20.31.09a8.41 8.41 0 0 0-8.37 8.44l.08 20.31a8.34 8.34 0 0 0 2.21 5.62l32-32.3a8.41 8.41 0 0 0-5.61-2.16zm8.81 8.62a8.3 8.3 0 0 0-2.2-5.62l-32 32.3a8.32 8.32 0 0 0 5.59 2.16l20.31-.09a8.4 8.4 0 0 0 8.37-8.43z" transform="translate(-51.12 -40.77)"/><path d="M154.41 75.23l-.17.18.59.59.17-.18a8.21 8.21 0 0 1-.59-.59z" transform="translate(-51.12 -40.77)" fill="#fff"/><path class="cls-2" d="M282.07 143.78l-9.58-.11a4 4 0 0 0-4 3.91l-.11 9.58a3.89 3.89 0 0 0 1 2.61l15.33-15a4 4 0 0 0-2.64-.99zm-9.42 17.76l9.58.12a4 4 0 0 0 4-3.91l.12-9.58a4 4 0 0 0-1-2.65l-15.34 15a3.92 3.92 0 0 0 2.64 1.02z" transform="translate(-51.12 -40.77)"/></svg>