<svg xmlns="http://www.w3.org/2000/svg" width="512" height="512" viewBox="0 0 28.335 28.336"><path d="M28.327 4.238v1.927h-3.854v3.852h-1.927V6.165h-3.853V4.238h3.853V.384h1.927v3.854h3.854zm-12.169-2.28h-2.192c1.548.886 2.369 2.71 2.369 4.722 0 1.847-1.021 3.334-2.467 4.464-1.41 1.102-1.678 1.563-1.678 2.5 0 .799 1.686 1.991 2.46 2.572 2.695 2.022 3.243 3.295 3.243 5.825 0 3.156-3.403 6.295-8.935 6.295-4.854 0-8.948-1.975-8.948-5.131 0-3.205 3.396-6.543 8.25-6.543.529 0 1.014-.016 1.515-.016-.664-.646-1.199-1.201-1.199-2.177 0-.58.184-1.133.442-1.629-.263.019-.532.035-.81.035-3.986 0-6.309-2.8-6.309-6.313C1.898 3.125 5.432 0 9.669 0h8.352l-1.863 1.958zm-4.626 16.038a7.245 7.245 0 0 0-2.172-.35c-3.354-.037-6.196 2.119-6.196 4.619 0 2.551 2.423 4.672 5.775 4.672 4.717 0 6.36-1.992 6.36-4.543 0-.31-.039-.607-.106-.898-.372-1.443-1.837-2.234-3.661-3.5zm1.447-11.19c-.387-2.956-2.312-5.381-4.563-5.45-2.25-.066-3.763 2.196-3.37 5.152.388 2.956 2.525 5.021 4.777 5.09 2.248.066 3.542-1.836 3.156-4.792z" fill="#FFF"/></svg>